<?xml version="1.0" encoding="UTF-8" standalone="no"?>
<svg
   xmlns:dc="http://purl.org/dc/elements/1.1/"
   xmlns:cc="http://creativecommons.org/ns#"
   xmlns:rdf="http://www.w3.org/1999/02/22-rdf-syntax-ns#"
   xmlns:svg="http://www.w3.org/2000/svg"
   xmlns="http://www.w3.org/2000/svg"
   xmlns:sodipodi="http://sodipodi.sourceforge.net/DTD/sodipodi-0.dtd"
   xmlns:inkscape="http://www.inkscape.org/namespaces/inkscape"
   width="22pt"
   height="24pt"
   viewBox="0 0 22 24"
   version="1.1"
   id="svg13"
   sodipodi:docname="icon-csh.svg"
   inkscape:version="1.0.2 (e86c870879, 2021-01-15)">
  <metadata
     id="metadata19">
    <rdf:RDF>
      <cc:Work
         rdf:about="">
        <dc:format>image/svg+xml</dc:format>
        <dc:type
           rdf:resource="http://purl.org/dc/dcmitype/StillImage" />
      </cc:Work>
    </rdf:RDF>
  </metadata>
  <defs
     id="defs17" />
  <sodipodi:namedview
     pagecolor="#ffffff"
     bordercolor="#666666"
     borderopacity="1"
     objecttolerance="10"
     gridtolerance="10"
     guidetolerance="10"
     inkscape:pageopacity="0"
     inkscape:pageshadow="2"
     inkscape:window-width="1280"
     inkscape:window-height="997"
     id="namedview15"
     showgrid="false"
     inkscape:zoom="22.96875"
     inkscape:cx="14.666667"
     inkscape:cy="16"
     inkscape:window-x="-9"
     inkscape:window-y="-9"
     inkscape:window-maximized="1"
     inkscape:current-layer="svg13"
     inkscape:document-rotation="0" />
  <g
     id="surface1"
     transform="matrix(0.74526356,0,0,0.75920907,0.19591833,2.4491757)">
    <path
       style="fill:#a178dc;fill-opacity:1;fill-rule:nonzero;stroke:none"
       d="m 22.175781,6.980469 c 0,-0.402344 -0.09375,-0.753907 -0.273437,-1.054688 C 21.722656,5.625 21.460938,5.375 21.101562,5.179688 18.148438,3.554688 15.191406,1.945312 12.242188,0.320312 11.449219,-0.117188 10.675781,-0.101562 9.886719,0.34375 8.710938,1.003906 2.824219,4.210938 1.074219,5.175781 0.351562,5.578125 0,6.183594 0,6.976562 c 0,3.257813 0,6.519532 0,9.777344 0,0.390625 0.0859375,0.734375 0.261719,1.035156 0.175781,0.304688 0.445312,0.5625 0.8125,0.761719 1.75,0.972657 7.636719,4.179688 8.8125,4.839844 0.789062,0.441406 1.5625,0.460937 2.355469,0.02344 2.949218,-1.625 5.90625,-3.242187 8.859374,-4.863281 0.367188,-0.199219 0.636719,-0.457031 0.8125,-0.761719 0.171876,-0.300781 0.261719,-0.644531 0.261719,-1.035156 0,0 0,-6.519531 0,-9.773437"
       id="path2" />
    <path
       style="fill:#260066;fill-opacity:1;fill-rule:nonzero;stroke:none"
       d="M 11.121094,11.832031 0.261719,17.789062 c 0.175781,0.304688 0.445312,0.5625 0.8125,0.761719 1.75,0.972657 7.636719,4.179688 8.8125,4.839844 0.789062,0.441406 1.5625,0.460937 2.355469,0.02344 2.949218,-1.625 5.90625,-3.242187 8.859374,-4.863281 0.367188,-0.199219 0.636719,-0.457031 0.8125,-0.761719 L 11.121094,11.832031"
       id="path4" />
    <path
       style="fill:#38008f;fill-opacity:1;fill-rule:nonzero;stroke:none"
       d="m 22.175781,6.980469 c 0,-0.402344 -0.09375,-0.753907 -0.273437,-1.054688 l -10.78125,5.90625 10.792968,5.957031 c 0.171876,-0.300781 0.261719,-0.644531 0.261719,-1.035156 0,0 0,-6.519531 0,-9.773437"
       id="path6" />
    <path
       style="fill:#ffffff;fill-opacity:1;fill-rule:nonzero;stroke:none"
       d="M 17.519531,9.609375 V 10.71875 H 18.6875 V 9.609375 h 0.582031 V 10.71875 H 20.4375 v 0.558594 h -1.167969 v 1.113281 H 20.4375 v 0.554687 h -1.167969 v 1.113282 H 18.6875 v -1.113282 h -1.167969 v 1.113282 h -0.589843 v -1.113282 h -1.167969 v -0.554687 h 1.167969 V 11.277344 H 15.761719 V 10.71875 h 1.167969 V 9.609375 Z m 1.167969,1.667969 h -1.167969 v 1.113281 H 18.6875 Z m 0,0"
       id="path8" />
    <path
       style="fill:#ffffff;fill-opacity:1;fill-rule:nonzero;stroke:none"
       d="m 11.148438,4.015625 c 3.046874,0 5.707031,1.578125 7.132812,3.921875 L 18.26953,7.917969 14.679687,9.882812 c -0.707032,-1.136718 -2,-1.910156 -3.488282,-1.925781 h -0.04297 c -2.269532,0 -4.109376,1.75 -4.109376,3.90625 0,0.707031 0.199219,1.371094 0.542969,1.941407 0.707031,1.175781 2.035157,1.96875 3.566407,1.96875 1.53125,0 2.871093,-0.800782 3.574218,-1.988282 l -0.01953,0.02734 3.582031,1.976562 c -1.40625,2.324219 -4.035156,3.894532 -7.046875,3.921876 l -0.08984,0.0039 c -3.0625,0 -5.730469,-1.585938 -7.152344,-3.941406 C 3.300781,14.621094 2.90625,13.285156 2.90625,11.863281 c 0,-4.332031 3.6875,-7.847656 8.242188,-7.847656 z m 0,0"
       id="path10" />
  </g>
</svg>
